<svg width="41" height="40" viewBox="0 0 41 40" fill="none" xmlns="http://www.w3.org/2000/svg">
<path d="M17.4797 1.08351C18.484 0.696879 20.4029 3.53395 21.8636 6.0375C23.2314 8.38195 24.5479 10.7516 26.0442 13.0342L29.3455 18.0709L20.819 20.494C20.819 20.494 21.1428 17.9117 19.2861 11.7258C16.8179 3.5024 15.7219 1.76026 17.4797 1.08351Z" fill="#C6C6C6"/>
<path d="M17.4797 38.9165C18.484 39.3031 20.4029 36.4661 21.8636 33.9625C23.2314 31.6181 24.5479 29.2484 26.0442 26.9658L29.3455 21.9291L20.819 19.506C20.819 19.506 21.1428 22.0883 19.2861 28.2742C16.8179 36.4976 15.7219 38.2397 17.4797 38.9165Z" fill="#C6C6C6"/>
<path d="M2.92774 14.0228C2.98728 13.6705 4.34975 14.3825 5.63472 15.1411C7.18157 16.0542 8.74433 16.9543 10.4058 17.738V17.738L7.24137 20.0761C7.24137 20.0761 6.88184 20.5643 5.16045 17.7381C3.61481 15.2005 2.81399 14.6958 2.92774 14.0228Z" fill="#C6C6C6"/>
<path d="M2.92774 26.4052C2.98728 26.7575 4.34975 26.0455 5.63472 25.2869C7.18157 24.3738 8.74433 23.4737 10.4058 22.6899V22.6899L7.24137 20.3519C7.24137 20.3519 6.88184 19.8637 5.16045 22.6899C3.61481 25.2275 2.81399 25.7322 2.92774 26.4052Z" fill="#C6C6C6"/>
<line x1="9.03516" y1="19.9753" x2="38.4031" y2="19.9753" stroke="#C6C6C6" stroke-width="5" stroke-linecap="round"/>
</svg>
